<?xml version="1.0" encoding="UTF-8"?>
<svg data-name="Layer 1" viewBox="0 0 175.37 66.9" xmlns="http://www.w3.org/2000/svg">
<defs>
<style>.cls-1 {
        fill: #e30046;
      }</style>
</defs>
<path class="cls-1" transform="translate(-23.13 -24.43)" d="m90 57.61-20.24 0.15a0.49 0.49 0 0 1 0 0.12v0.42 0.06 0.38s0 0 0 0.07l20.2 1.39h0.04a22 22 0 0 0 0-2.59z"/>
<path class="cls-1" transform="translate(-23.13 -24.43)" d="M45.36,89.39h0a28.66,28.66,0,0,0,3.07.93h0l3.48-13.88c-.51-.42-1-.87-1.48-1.32Z"/>
<path class="cls-1" transform="translate(-23.13 -24.43)" d="M31.1,79.56l0,0c0,.05.09.1.13.16.59.66,1.18,1.3,1.8,1.92l.21.2h0l12.59-13c-.23-.45-.45-.92-.65-1.39Z"/>
<path class="cls-1" transform="translate(-23.13 -24.43)" d="M51,90.86h.05l.2,0c.86.13,1.74.24,2.61.31l.29,0h0l.7-10.1-.7,10.1.87-12.62a20.67,20.67,0,0,1-1.82-1.16Z"/>
<path class="cls-1" transform="translate(-23.13 -24.43)" d="M40.05,87h0l.22.11,0,0c.85.47,1.73.91,2.61,1.31h0L49.36,74c-.4-.44-.79-.9-1.15-1.38Z"/>
<path class="cls-1" transform="translate(-23.13 -24.43)" d="M35.25,83.64l0,0,.18.15c.68.55,1.39,1.08,2.11,1.58h0l.22.15h0l9.56-14.1c-.3-.45-.6-.92-.88-1.4Z"/>
<path class="cls-1" transform="translate(-23.13 -24.43)" d="m23.67 63.92v0.24c0.19 1 0.41 1.92 0.69 2.85l19.18-5.47c-0.06-0.43-0.11-0.85-0.14-1.28z"/>
<path class="cls-1" transform="translate(-23.13 -24.43)" d="M27.74,74.81h0a2,2,0,0,1,.11.2l0,0c.46.75.93,1.48,1.44,2.2h0l.16.21,0,0L44.78,66.41c-.16-.44-.31-.9-.45-1.36Z"/>
<path class="cls-1" transform="translate(-23.13 -24.43)" d="M43.76,62.64,25.23,69.55h0c.38,1,.8,2,1.27,3h0L44,64c-.1-.43-.2-.87-.28-1.31"/>
<path class="cls-1" transform="translate(-23.13 -24.43)" d="m82.33 79.22 0.16-0.19c0.56-0.68 1.09-1.39 1.59-2.1l0.14-0.21s0 0 0 0l-1.7-1.16a24.44 24.44 0 0 1-2.37 1.94z"/>
<path class="cls-1" transform="translate(-23.13 -24.43)" d="M85.64,74.43h0c0-.08.08-.17.13-.25l0,0c.47-.84.91-1.72,1.3-2.6l-.87-.4a21.47,21.47,0,0,1-1.9,2.51Z"/>
<path class="cls-1" transform="translate(-23.13 -24.43)" d="m43.37 58.14v-0.14l-20.24 0.12v0.29c0 0.87 0.07 1.76 0.14 2.62v0.27l20.09-2.05v-0.86-0.26"/>
<path class="cls-1" transform="translate(-23.13 -24.43)" d="M78.24,83.36l0,0c0-.06.11-.1.16-.15.67-.57,1.31-1.17,1.92-1.79l.18-.18,0,0-2.49-2.42A21.87,21.87,0,0,1,75.42,80Z"/>
<path class="cls-1" transform="translate(-23.13 -24.43)" d="m66.7 81.72h-1.28l2.8 7.54c1-0.38 2-0.8 3-1.26l-3.06-6.28h-1.42"/>
<path class="cls-1" transform="translate(-23.13 -24.43)" d="M56.79,91.33h.29c.88,0,1.76,0,2.63-.14l.27,0h0l-1.1-10.76c-.74-.26-1.46-.57-2.17-.9Z"/>
<path class="cls-1" transform="translate(-23.13 -24.43)" d="M60.8,81l1.8,9.81.25-.05h0c.95-.18,1.92-.41,2.85-.67h0l-2.44-8.57A23.34,23.34,0,0,1,60.8,81"/>
<path class="cls-1" transform="translate(-23.13 -24.43)" d="m73.49 86.73 0.19-0.11c0.74-0.46 1.48-0.93 2.19-1.44l0.19-0.15h0.06l-3-4.16a22.89 22.89 0 0 1-2.78 0.62z"/>
<path class="cls-1" transform="translate(-23.13 -24.43)" d="M27.49,41.37h0l-.12.21s0,0,0,0c-.48.85-.91,1.73-1.31,2.61h0l18.14,8.11c.11-.43.24-.85.38-1.28Z"/>
<path class="cls-1" transform="translate(-23.13 -24.43)" d="m79.12 38.65 2.88-2.48-0.15-0.17c-0.57-0.66-1.17-1.3-1.79-1.92l-0.19-0.18-3.3 3.41a21.57 21.57 0 0 1 2.59 1.4"/>
<path class="cls-1" transform="translate(-23.13 -24.43)" d="m85.39 40.91-0.1-0.18c-0.45-0.75-0.93-1.48-1.43-2.2l-0.17-0.22v-0.05l-2.52 1.84a21.8 21.8 0 0 1 2.27 2z"/>
<path class="cls-1" transform="translate(-23.13 -24.43)" d="m73.07 28.78-0.21-0.12c-0.85-0.47-1.73-0.92-2.62-1.32l-3.45 7.74a23.31 23.31 0 0 1 2.66 0.16z"/>
<path class="cls-1" transform="translate(-23.13 -24.43)" d="m87.9 46.18c-0.37-1-0.8-2-1.27-3l-1.57 0.82a23 23 0 0 1 1.76 2.58z"/>
<path class="cls-1" transform="translate(-23.13 -24.43)" d="M89.47,51.8a1.89,1.89,0,0,0,0-.23v0c-.19-1-.41-1.93-.69-2.87h0l-.72.21a23.17,23.17,0,0,1,1.1,3Z"/>
<path class="cls-1" transform="translate(-23.13 -24.43)" d="m67.76 26.36c-1-0.36-2-0.67-3.08-0.93l-2.5 10.08a24.47 24.47 0 0 1 2.47-0.35z"/>
<path class="cls-1" transform="translate(-23.13 -24.43)" d="M77.87,32.09s0,0,0,0l-.18-.14c-.67-.56-1.39-1.08-2.1-1.58h0l-.23-.17h0l-3.68,5.43a24.68,24.68,0,0,1,2.71.76Z"/>
<path class="cls-1" transform="translate(-23.13 -24.43)" d="M39.62,29.05a1,1,0,0,0-.18.1l0,0h0c-.76.46-1.49.93-2.21,1.44h0l-.2.15-.06,0L47.43,45.25c.3-.45.62-.88,1-1.31Z"/>
<path class="cls-1" transform="translate(-23.13 -24.43)" d="M30.8,36.57h0l-.16.2c-.56.68-1.09,1.39-1.58,2.11h0l-.15.22s0,0,0,0h0L44.92,50c.17-.44.35-.87.55-1.3Z"/>
<path class="cls-1" transform="translate(-23.13 -24.43)" d="M46.73,46.33,34.88,32.42l0,0-.17.15c-.67.57-1.31,1.17-1.93,1.8a1.53,1.53,0,0,1-.18.18s0,0,0,0h0L46,47.64c.24-.44.48-.88.74-1.31"/>
<path class="cls-1" transform="translate(-23.13 -24.43)" d="M50.51,25h0l-.26.05h0c-1,.18-1.92.42-2.86.69h0l4.25,14.87c.5-.42,1-.82,1.54-1.19Z"/>
<path class="cls-1" transform="translate(-23.13 -24.43)" d="M56.32,24.43l-3.2.17,1.43,13.88a20.89,20.89,0,0,1,1.86-1Z"/>
<path class="cls-1" transform="translate(-23.13 -24.43)" d="M44.89,26.54h0c-1,.38-2,.8-2.94,1.27h0l7.35,15.07c.39-.44.8-.87,1.22-1.28Z"/>
<path class="cls-1" transform="translate(-23.13 -24.43)" d="M62.1,24.89H62l-.15,0c-.85-.14-1.73-.25-2.6-.32l-.35,0-.83,12.2A21.5,21.5,0,0,1,60.26,36Z"/>
<path class="cls-1" transform="translate(-23.13 -24.43)" d="M67.51,65.28l15,10.22a23.55,23.55,0,0,0,1.77-1.83L68.06,64.4a10,10,0,0,1-.55.88"/>
<path class="cls-1" transform="translate(-23.13 -24.43)" d="M45.63,50.49l-.7-.48c-.14.35-.26.7-.38,1.05l.54.31c.17-.3.35-.6.54-.88"/>
<path class="cls-1" transform="translate(-23.13 -24.43)" d="M44.52,52.49l-.35-.15c-.09.34-.18.68-.25,1l.21.08c.12-.33.25-.64.39-1"/>
<path class="cls-1" transform="translate(-23.13 -24.43)" d="M88.07,69.11h0c.36-1,.67-2,.93-3L88.77,66a20.72,20.72,0,0,1-1.25,3Z"/>
<path class="cls-1" transform="translate(-23.13 -24.43)" d="M89.48,63.46,69.59,60.1c-.06.34-.13.68-.21,1L88.77,66a15.77,15.77,0,0,0,.78-2.5Z"/>
<path class="cls-1" transform="translate(-23.13 -24.43)" d="M46.39,49.48a10.27,10.27,0,0,1,.7-.78L46,47.64c-.19.36-.35.71-.52,1.07Z"/>
<path class="cls-1" transform="translate(-23.13 -24.43)" d="M66.05,67.07l12,11.68a23,23,0,0,0,2.1-1.31L66.75,66.3a10.13,10.13,0,0,1-.7.77"/>
<path class="cls-1" transform="translate(-23.13 -24.43)" d="M68.62,63.28h0l17.6,7.88a23.64,23.64,0,0,0,1.29-2.24L69,62.32a8,8,0,0,1-.39,1"/>
<path class="cls-1" transform="translate(-23.13 -24.43)" d="m48.06 47.79c0.25-0.21 0.51-0.41 0.77-0.6l-1.4-1.93c-0.24 0.34-0.48 0.7-0.7 1.07l1.27 1.5"/>
<path class="cls-1" transform="translate(-23.13 -24.43)" d="M50.81,46l-1.52-3.12c-.31.35-.61.7-.9,1.06l1.51,2.55c.29-.17.6-.34.91-.49"/>
<path class="cls-1" transform="translate(-23.13 -24.43)" d="M64.31,68.58l8.85,12.24c.77-.23,1.52-.48,2.26-.78L65.13,67.94c-.27.23-.54.44-.82.64"/>
<path class="cls-1" transform="translate(-23.13 -24.43)" d="M47.38,67.37l-1.5,1.55c.19.39.4.77.61,1.15l1.67-2c-.27-.23-.53-.46-.78-.7"/>
<path class="cls-1" transform="translate(-23.13 -24.43)" d="m56.57 71.09h-1l-0.37 5.11-0.18 2.46c0.54 0.32 1.09 0.6 1.65 0.87v-8.4h-0.1"/>
<path class="cls-1" transform="translate(-23.13 -24.43)" d="M45.87,65.62l-1.09.79c.14.38.3.75.45,1.12l1.28-1.09c-.22-.26-.43-.54-.64-.82"/>
<path class="cls-1" transform="translate(-23.13 -24.43)" d="M51.18,69.94,49.36,74c.34.39.7.75,1.07,1.12l1.7-4.8c-.32-.11-.64-.24-1-.38"/>
<path class="cls-1" transform="translate(-23.13 -24.43)" d="M49.18,68.83l-1.81,2.64c.27.4.55.77.84,1.15l1.84-3.25c-.29-.17-.59-.35-.87-.54"/>
<path class="cls-1" transform="translate(-23.13 -24.43)" d="M57.94,71l1,9.37c.63.22,1.27.42,1.91.59L59,70.87c-.34.06-.67.11-1,.15"/>
<path class="cls-1" transform="translate(-23.13 -24.43)" d="M43.44,59.25h0c0,.34,0,.69.06,1l.14,0a8.35,8.35,0,0,1-.15-1"/>
<path class="cls-1" transform="translate(-23.13 -24.43)" d="M63.25,69.28c-.3.18-.61.34-.92.49l5.79,11.92c.77-.06,1.53-.13,2.26-.25Z"/>
<path class="cls-1" transform="translate(-23.13 -24.43)" d="M53.34,70.69l-1.43,5.75c.43.35.88.7,1.34,1l1.11-6.56c-.35-.06-.68-.13-1-.21"/>
<path class="cls-1" transform="translate(-23.13 -24.43)" d="M43.87,61.5l-.28.08c0,.36.09.71.17,1.06l.43-.16c-.12-.32-.23-.65-.32-1"/>
<path class="cls-1" transform="translate(-23.13 -24.43)" d="M44.69,63.65,44,64c.09.36.19.73.29,1.09l.84-.5q-.26-.43-.48-.9"/>
<path class="cls-1" transform="translate(-23.13 -24.43)" d="M60.19,70.59l3.1,10.89q1.05.15,2.13.21L61.17,70.27c-.32.12-.65.22-1,.32"/>
<path class="cls-1" transform="translate(-23.13 -24.43)" d="M53,45.19l-1.33-4.6c-.37.33-.75.66-1.11,1L52,45.5c.32-.11.65-.22,1-.31"/>
<path class="cls-1" transform="translate(-23.13 -24.43)" d="M54.17,44.9l.51-.08.51-.07-.64-6.27c-.47.29-.94.6-1.38.92l1,5.5Z"/>
<path class="cls-1" transform="translate(-23.13 -24.43)" d="M63.05,46.38c.14.08.28.15.41.24s.3.18.44.28l.05,0,7.68-11.34q-1.09-.23-2.22-.36L63.07,46.39h0"/>
<path class="cls-1" transform="translate(-23.13 -24.43)" d="m64 47"/>
<path class="cls-1" transform="translate(-23.13 -24.43)" d="M65,47.69l.09.08.36.31.1.09.23.21L76.53,37.25a21,21,0,0,0-2.19-.9Z"/>
<path class="cls-1" transform="translate(-23.13 -24.43)" d="M66.69,49.4c.2.24.39.49.57.74h0L81.12,40.07a21.31,21.31,0,0,0-2-1.42L66.62,49.31l.07.09"/>
<path class="cls-1" transform="translate(-23.13 -24.43)" d="M68,51.19c.17.3.34.6.49.91L85.06,44a23.38,23.38,0,0,0-1.67-1.9L68,51.19h0"/>
<path class="cls-1" transform="translate(-23.13 -24.43)" d="M69.27,54.24,88,48.88c-.36-.79-.75-1.56-1.18-2.3L69,53.27c.12.32.22.64.32,1"/>
<path class="cls-1" transform="translate(-23.13 -24.43)" d="M56.55,44.68h.62l.22,0h.15l.54-8c-.57.22-1.13.47-1.67.74l.05,7.22h.09"/>
<path class="cls-1" transform="translate(-23.13 -24.43)" d="M58.77,44.86h0c.35.06.68.13,1,.21l2.38-9.56c-.64.13-1.29.28-1.91.46Z"/>
<path class="cls-1" transform="translate(-23.13 -24.43)" d="M61,45.44c.32.11.63.24,1,.38h0l4.8-10.75h0c-.7,0-1.39,0-2.06.09L61,45.44Z"/>
<path class="cls-1" transform="translate(-23.13 -24.43)" d="M69.7,56.49l20-2.07a21.47,21.47,0,0,0-.59-2.55l-19.55,3.6a8.35,8.35,0,0,1,.15,1"/>
<path class="cls-1" transform="translate(-23.13 -24.43)" d="M43.4,56.91h0c0-.43.06-.9.11-1.23h0c.06-.34.13-.68.21-1l-.09,0s.21-1.15.25-1.26h0L25.06,46.68h0c-.36,1-.67,2-.93,3.08h0l19.54,4.87c-.06.38-.11.73-.15,1L23.59,52.33a.19.19,0,0,0,0,.08l0,.17c-.14.86-.25,1.73-.31,2.6,0,.1,0,.19,0,.28v.07L43.4,56.9Z"/>
<path class="cls-1" transform="translate(-23.13 -24.43)" d="M108.13,75.94H103v4.38h-1.09V70.93H103v4h5.18v-4h1.1v9.39h-1.1Z"/>
<path class="cls-1" transform="translate(-23.13 -24.43)" d="m115.9 70.74a4.88 4.88 0 1 1-4.9 4.87 4.7 4.7 0 0 1 4.9-4.87zm0 8.71a3.84 3.84 0 1 0-3.77-3.84 3.63 3.63 0 0 0 3.77 3.84z"/>
<path class="cls-1" transform="translate(-23.13 -24.43)" d="m130.42 80.32v-1.35a4.61 4.61 0 0 1-3.47 1.53 4.88 4.88 0 0 1 0-9.76 4.47 4.47 0 0 1 4.26 2.57l-1.07 0.29a3.47 3.47 0 0 0-3.14-1.82 3.57 3.57 0 0 0-3.73 3.82 3.63 3.63 0 0 0 3.73 3.85 3.9 3.9 0 0 0 3.38-1.68v-1.34h-2.79v-1h3.81v4.91z"/>
<path class="cls-1" transform="translate(-23.13 -24.43)" d="m133.51 70.93h6.32v1h-5.23v3h4.08v1h-4.08v3.37h5.26v1h-6.35z"/>
<path class="cls-1" transform="translate(-23.13 -24.43)" d="M142.32,77.57c.1,1.34,1.22,2,2.65,2s2.2-.55,2.2-1.68c0-1.54-1.55-1.62-2.72-1.88s-2.91-.75-2.91-2.65c0-1.64,1.2-2.57,3.18-2.57,1.74,0,3,.73,3.43,2.34l-1.05.28a2.16,2.16,0,0,0-2.4-1.64c-1.37,0-2,.59-2,1.55,0,1.24,1.18,1.51,2.52,1.78s3.11.71,3.11,2.78c0,1.77-1.23,2.67-3.32,2.67-1.59,0-3.4-.53-3.69-2.65Z"/>
<path class="cls-1" transform="translate(-23.13 -24.43)" d="M158.75,77.68a4.58,4.58,0,0,1-4.39,2.82,4.88,4.88,0,0,1,0-9.76,4.46,4.46,0,0,1,4.27,2.57l-1.06.29a3.73,3.73,0,0,0-6.94,2,3.73,3.73,0,0,0,7.06,1.79Z"/>
<path class="cls-1" transform="translate(-23.13 -24.43)" d="M166.91,75.94h-5.18v4.38h-1.09V70.93h1.09v4h5.18v-4H168v9.39h-1.1Z"/>
<path class="cls-1" transform="translate(-23.13 -24.43)" d="m174.68 70.74a4.88 4.88 0 1 1-4.87 4.87 4.71 4.71 0 0 1 4.87-4.87zm0 8.71a3.84 3.84 0 1 0-3.77-3.84 3.64 3.64 0 0 0 3.77 3.84z"/>
<path class="cls-1" transform="translate(-23.13 -24.43)" d="m185.77 70.74a4.88 4.88 0 1 1-4.87 4.87 4.71 4.71 0 0 1 4.87-4.87zm0 8.71a3.84 3.84 0 1 0-3.77-3.84 3.63 3.63 0 0 0 3.77 3.84z"/>
<path class="cls-1" transform="translate(-23.13 -24.43)" d="m192.46 70.93h1.08v8.37h5v1h-6z"/>
<path class="cls-1" transform="translate(-23.13 -24.43)" d="M101.86,51.63V35.82h5.31V49.93c0,5.13,1.12,9.24,6.73,9.24s6.72-4.11,6.72-9.24V35.82h5.31V51.63c0,7.51-3.86,12.41-12,12.41s-12-4.9-12-12.41"/>
<path class="cls-1" transform="translate(-23.13 -24.43)" d="M130.25,49.65c0-8.7,6-14.39,14.32-14.39a20.73,20.73,0,0,1,8.26,1.62l-.58,4.82a20.52,20.52,0,0,0-7.68-1.58c-5.64,0-8.51,4-8.51,9.53s2.87,9.52,8.51,9.52a20.32,20.32,0,0,0,7.68-1.58l.58,4.83A20.91,20.91,0,0,1,144.57,64c-8.3,0-14.32-5.7-14.32-14.39"/>
<polygon class="cls-1" points="134.02 39.72 134.02 10.95 139.71 10.95 139.71 34.62 152.53 34.62 152.53 39.72"/>
<polygon class="cls-1" points="156.84 39.72 156.84 10.95 162.54 10.95 162.54 34.63 175.35 34.63 175.35 39.72"/>
</svg>
