<?xml version="1.0" encoding="UTF-8"?>
<!DOCTYPE svg  PUBLIC '-//W3C//DTD SVG 20010904//EN'  'http://www.w3.org/TR/2001/REC-SVG-20010904/DTD/svg10.dtd'>
<svg width="489pt" height="486pt" version="1.0" viewBox="0 0 489 486" xmlns="http://www.w3.org/2000/svg">
<metadata>Created by potrace 1.16, written by Peter Selinger 2001-2019</metadata>
<g transform="translate(0 486) scale(.1 -.1)">
<path d="m2213 4853c-29-4-32-7-28-31 3-15 25-227 50-472s47-460 49-477c4-29 0-36-39-62-25-17-46-27-48-23s-46 236-98 516c-63 345-98 510-107 513-14 6-191-34-213-48-11-6 18-119 141-549l154-540-34-29c-21-17-38-25-41-19-4 6-96 251-205 544-110 294-203 534-207 534-12 0-200-80-211-90-4-5 112-254 258-555l267-547-26-35c-15-19-28-33-30-31-1 2-143 242-315 533-172 292-316 534-320 538-9 10-200-110-200-125 0-5 169-243 375-529s375-525 375-532c-1-22-38-63-48-52-5 6-197 231-427 500-229 270-421 492-426 493-5 2-47-33-92-77l-82-81 340-332c187-183 407-398 489-478l148-147-16-32-17-32-57 48c-253 211-1004 829-1010 831-9 3-142-171-142-186 0-4 261-186 580-403 545-370 580-396 574-419-3-14-8-28-12-31-4-4-284 150-622 342-338 191-618 348-622 349-7 0-108-193-108-207 0-5 297-142 659-304 645-287 660-295 654-319-3-14-9-29-14-34s-292 92-683 232c-372 133-680 242-684 242-10 0-62-162-65-204l-2-29 705-177 705-176v-30c0-27-2-29-35-26-19 2-345 55-724 118s-690 113-692 112c-6-7-24-152-24-192 0-39 3-46 23-50 36-7 1285-89 1372-90l80-1 8 65c4 36 9 76 12 90 2 14 4 35 4 47 1 12 7 28 15 36 23 22 46 85 34 89-7 3-8 18-4 42 6 33 10 37 31 32 19-5 27 1 45 31 17 29 19 38 8 44-40 25-40 24-22 68l17 42 26-25c35-33 45-33 72 5l21 31-74 76 22 42 22 43 39-44c21-24 38-47 39-51 0-5 5-8 10-8 13 0 70 41 70 50 0 3-22 36-50 74l-50 68 31 39c17 22 32 39 34 39 1 0 25-38 51-85 27-47 53-85 57-85 14 0 67 30 67 39 0 4-23 57-51 116l-51 107 38 39c21 22 41 36 45 31 4-4 28-64 54-134 26-71 50-128 55-128 21 0 70 24 70 34 0 6-20 81-44 166-44 152-45 155-26 175 10 11 32 28 49 38l30 17 10-52c6-29 22-116 36-192 14-77 26-141 28-142 2-2 20-1 40 3 45 7 45-1 17 262-12 105-18 196-15 201 9 15 106 62 113 56 3-3 7-118 10-256l5-250h42 42l17 253c9 138 16 267 16 285 0 30 4 35 48 53 26 11 60 23 76 26 27 6 28 4 22-23-14-67-96-574-96-592 0-15 9-22 36-27 23-4 39-2 43 4s44 163 90 350l82 339 85 12c47 7 86 11 88 9s-57-168-130-369c-74-201-134-368-134-372 0-8 78-33 84-27 2 2 81 179 176 393l174 389 65-7c36-3 76-6 88-6 18 0-9-53-204-397-124-219-227-403-230-409-4-12 44-44 65-44 5 0 133 184 286 409l277 409 85-22c46-13 87-26 90-29s-145-189-330-413l-337-408 61-61 143 145c79 80 256 262 394 405l252 260 86-44c47-25 84-48 83-52-2-3-192-167-423-364-231-196-433-369-449-385l-28-28 23-31c13-17 28-30 35-27 6 2 235 167 509 366l497 361 32-25c17-13 53-44 80-68l48-43-558-329c-308-181-560-330-562-331-6-5 32-75 40-75 5 0 277 131 604 290 327 160 598 290 602 290 9 0 112-151 112-166 0-8-502-200-1267-485-20-7-21-11-10-46 6-21 12-39 13-41 1-1 309 85 685 192 375 108 684 194 686 192 7-6 74-199 71-201-2-2-300-58-663-124-363-67-683-126-710-132l-50-9 3-40c4-37 6-40 36-39 66 1 1426 145 1432 152 4 4 0 43-10 88-12 58-14 84-7 93 11 13-4 107-31 199-11 35-14 38-40 33-27-5-30-1-68 74l-40 80 35 14c19 8 35 19 35 24 0 10-48 128-75 184l-18 37-57-29-56-28-57 63-57 64 70 42c47 27 69 47 66 56-4 10-103 165-122 191-1 2-42-26-92-62-49-36-92-66-96-66-9 0-131 91-130 97 1 3 44 42 95 86 52 44 94 85 94 92 0 14-139 165-152 165-6 0-62-54-126-119l-117-119-65 27c-36 15-68 30-71 34-3 3 49 73 115 155 67 82 121 151 121 154 0 9-176 138-187 138-6 0-32-33-58-72-26-40-85-127-131-194l-82-120-65 10c-36 6-68 14-72 18s50 108 119 231c69 124 126 228 126 231 0 7-195 106-209 106-5 0-64-126-132-279l-124-279-70-4c-38-2-71-3-72-3-2 1 47 141 107 312 61 171 110 315 110 320 0 11-160 62-204 66l-30 2-90-364-91-364-59-14c-33-7-61-12-63-10s26 181 61 398c36 216 64 394 63 396-8 8-153 24-193 21l-49-3-29-437-30-436-58-25-58-26v470 469l-92-2c-51 0-107-3-125-5z"/>
<path d="m3533 2433-133-4v-39c0-36 2-39 33-44 37-6 1389-97 1430-96h27v95 95l-612-2c-337-1-673-4-745-5z"/>
<path d="m662 2413-662-3v-108c0-59 4-113 9-121 10-16-63-22 787 65 347 35 643 64 657 64 23 0 27-4 27-29v-29l-142-27c-79-14-404-75-723-134l-580-108 2-24c1-13 12-66 24-117l22-93 30 7c16 3 333 93 703 198l672 193 5-31c3-17 3-34 1-37s-305-118-673-255c-369-137-671-253-671-257 0-20 84-209 95-214 7-2 294 133 639 301s629 306 631 306c1 0 8-13 13-30l11-30-167-99c-92-54-360-212-597-351-236-139-434-256-438-260-9-8 110-200 123-200 3 0 255 179 560 398 327 235 558 394 561 388 28-48 41-34-491-492-280-241-510-443-510-449 0-10 150-165 161-165 2 0 209 212 459 470l455 470 19-38 18-39-406-493c-223-272-406-497-406-500 0-8 177-140 187-140 4 0 163 230 353 510 189 281 346 510 347 510 2 0 14-18 29-39l25-39-295-521c-163-287-296-523-296-526 0-6 196-105 209-105 5 0 114 234 242 520l233 520 33-32c18-18 33-37 33-42 0-6-81-239-180-518-99-278-180-510-180-516 0-13 220-76 230-66 4 5 62 231 130 502 67 270 125 492 129 492 3 0 23-15 43-33l36-32-79-484c-44-266-77-486-74-489s57-8 119-10l114-4 6 68c3 38 18 238 32 444s27 376 28 378c2 2 29-9 60-25l56-27v-418-418h120c108 0 120 2 120 18 0 9-16 180-37 379-20 200-35 365-32 367 3 3 31-3 64-13l59-18 66-359c52-281 69-359 81-357 50 5 219 48 219 55 0 4-38 144-85 310-47 165-84 303-81 305 2 3 34 1 71-4l68-8 101-272c55-150 105-273 111-273 23 0 215 84 215 95 0 7-48 110-106 229-58 120-104 220-102 222s35 6 74 9l69 6 103-174c57-96 109-182 116-192 12-17 20-13 110 45 68 44 95 67 91 77-3 8-49 76-103 150-53 74-95 138-93 141 2 4 36 19 76 33l71 26 99-118c55-66 103-119 108-119 14 0 166 144 167 157 0 6-38 46-85 88-47 43-85 81-85 85s31 26 70 49l70 42 78-61c43-33 81-60 84-60 9 0 138 171 138 184 0 6-27 29-61 50l-60 39 62 63 63 62 48-24c26-13 50-24 53-24 6 0 105 196 105 209 0 5-13 14-29 21l-29 12 31 51c17 29 37 62 44 75 8 12 23 22 37 22 20 0 26 11 55 105 19 57 31 111 28 118s6 46 19 86c24 74 30 111 17 111-3 0-327 54-718 120-392 66-719 120-727 120-10 0-18-14-21-37-4-20-5-39-3-41s318-82 702-179c385-97 701-178 703-180 3-2-13-47-35-101-27-65-45-96-55-95-8 2-311 109-674 238s-662 235-666 235c-3 0-13-17-21-39l-15-38 634-284c349-156 637-288 640-292 5-8-100-151-119-163-5-3-275 146-599 331-325 185-591 335-593 334-43-60-46-66-28-81 9-8 254-176 545-373 290-197 527-362 527-366s-34-35-76-68c-65-52-79-59-93-49-9 7-228 190-489 406-260 215-475 392-478 392-6 0-53-53-54-61 0-4 196-197 436-430l436-424-78-37c-44-20-87-37-96-37-10-1-160 168-385 433-202 239-372 435-378 435-5 0-23-11-38-25l-29-25 95-132c53-72 197-271 320-442 124-171 222-313 218-317-4-5-45-16-91-26l-85-19-260 444c-143 243-264 443-268 443-15 0-67-31-67-40 0-5 92-199 205-431s205-423 205-425-40-4-89-4h-89l-15 38c-8 20-76 204-152 407-75 204-141 374-145 379-5 4-25 3-45-4-26-9-36-17-32-29 2-9 53-186 111-394 59-208 106-380 104-381-6-6-143 25-152 34-5 5-39 173-76 372l-67 363-39-3c-21-2-41-6-44-8-4-5 56-602 66-656l5-27-52 20c-29 11-65 27-81 35l-28 15v304 305h-45c-36 0-45-3-45-17 1-61-34-499-40-506-4-5-30 6-59 23-36 22-51 38-51 53 0 12 16 112 35 222s35 210 35 221c0 17-8 23-36 29-20 3-38 4-41 1-3-2-27-94-55-203-27-109-50-199-52-200-1-1-24 17-50 40l-47 42 60 168c34 93 61 172 61 177 0 13-71 34-80 24-4-5-34-69-66-142l-58-132-29 27c-52 51-52 52 18 176 36 63 65 117 65 120s-16 14-35 26l-35 20-43-62c-24-34-52-74-62-89-9-16-21-28-25-28s-19 17-33 39l-26 39 60 70c32 39 59 75 59 81 0 5-14 20-31 32l-31 22-106-106-22 42-21 42 47 43 47 42-23 32c-13 18-27 32-30 32s-22-11-41-25l-34-26-12 28c-14 32-17 63-5 63 4 0 16 7 26 15 19 14 19 15 0 50-16 30-23 35-45 30-24-5-27-3-32 31-5 28-2 40 10 49 13 10 14 17 4 48-7 21-19 37-27 37-12 0-15 14-13 68 0 37-2 95-6 130l-7 62-77-2c-42-2-374-4-739-5z"/>
</g>
</svg>
